<?xml version="1.0" encoding="utf-8"?>
<svg xmlns="http://www.w3.org/2000/svg" viewBox="0 0 55.479 59.955">
    <path fill="#FFF" d="M52.348 12.17h-6.96a7.775 7.775 0 0 0 1.066-2.209 7.694 7.694 0 0 0-.613-5.898A7.686 7.686 0 0 0 41.238.326a7.696 7.696 0 0 0-5.897.612c-3.608 1.954-6.168 6.11-7.601 9.01-1.433-2.9-3.993-7.056-7.601-9.01-3.758-2.032-8.468-.629-10.501 3.125-1.437 2.654-1.152 5.781.459 8.107H3.133A3.136 3.136 0 0 0 0 15.302v9.382a3.135 3.135 0 0 0 3.133 3.131h.83v26.109a6.037 6.037 0 0 0 6.031 6.031h35.491a6.036 6.036 0 0 0 6.029-6.031V27.815h.834a3.134 3.134 0 0 0 3.131-3.131v-9.382a3.135 3.135 0 0 0-3.131-3.132zM36.483 3.048a5.307 5.307 0 0 1 4.07-.422 5.303 5.303 0 0 1 3.176 2.58 5.306 5.306 0 0 1 .424 4.071c-.359 1.204-1.128 2.202-2.159 2.893h-12.64c1.13-2.525 3.605-7.213 7.129-9.122zM11.749 5.205a5.355 5.355 0 0 1 7.248-2.157c3.524 1.909 5.999 6.596 7.129 9.122H13.487c-2.26-1.518-3.059-4.523-1.738-6.965zm14.791 22.61v13.67H6.363v-13.67H26.54zM6.363 53.924V43.886H26.54v13.669H9.994a3.635 3.635 0 0 1-3.631-3.631zm39.122 3.631H28.94V43.886h20.174v10.039a3.634 3.634 0 0 1-3.629 3.63zm3.629-16.069H28.94v-13.67h20.174v13.67zm3.965-16.802a.732.732 0 0 1-.731.731h-2.03l-.003-.001-.003.001H27.743l-.003-.001-.003.001H5.166l-.003-.001-.003.001H3.133a.733.733 0 0 1-.733-.731v-9.382c0-.397.335-.732.733-.732h49.215c.396 0 .731.335.731.732v9.382z"/>
</svg>
