<?xml version="1.0" encoding="utf-8"?>
<svg xmlns="http://www.w3.org/2000/svg" viewBox="0 0 70.164 59.48">
    <path fill="#FDC305" d="M59.884 23.995c-5.452-13.05-20.45-19.209-33.5-13.757s-19.209 20.45-13.757 33.5c3.586 8.584 11.303 14.186 19.88 15.464-.579-2.09-1.162-4.4-1.692-6.855 1.499.992 3.089 1.805 4.769 2.555l-.02.01s.118 2.156.279 4.565a25.438 25.438 0 0 0 5.347-.478c-.042-.158-.043-.405.012-.762.286-1.862 1.093-5.236 1.248-7.407a15.232 15.232 0 0 0 2.9-3.713l-.004.036-.054.433c-.554 4.265-1.704 8.814-2.403 10.072a5.796 5.796 0 0 1-.83 1.153 25.729 25.729 0 0 0 4.068-1.317c13.05-5.451 19.209-20.45 13.757-33.499zm-1.478 3.786c-.434.434-1.349.723-1.494-.578s-.193-2.217-.193-2.217-1.928-3.421-2.65-3.47c-.723-.048-5.831 3.47-7.18 4.964-1.165 1.289-1.397 1.205-1.397 3.47 0 1.713.22 8.167.099 13.108l-8.146 2.168c-5.976 1.59-7.807 1.783-7.807 1.783l-1.012-5.831h-.002l-.04-.007h-.002l-.035-.005a1.665 1.665 0 0 0-.049-.006l-2.57-13.185s-3.807-1.446-5.204-1.831c-1.398-.386-2.265-.675-4.048.626-1.783 1.301-1.735 3.855-1.735 3.855s.434.964.482 1.446c.048.482-1.205.434-2.024.434s-.916-1.446-.289-3.132c.626-1.687 1.928-3.711 1.928-3.711s1.205-2.265 2.072-2.891c0 0 .145-.337 1.253-.241 1.108.096 7.277.434 7.277.434l.053-2.275a144.305 144.305 0 0 1 20.244-1.336c-.01.608-.029 1.218-.058 1.828 0 0 4.385-2.024 8.144-1.976 0 0 .434-.048.771.386s2.409 2.988 2.65 3.373c.241.386 1.205 1.735 1.831 3.036-.002-.002-.435 1.347-.869 1.781z"/>
    <path fill="#F06351" d="M56.455 21.673c.474.598.887 1.129.987 1.288.241.386 1.205 1.735 1.831 3.036 0 0-.434 1.349-.867 1.783s-1.349.723-1.494-.578-.193-2.217-.193-2.217-1.928-3.421-2.65-3.47c-.723-.048-5.831 3.47-7.18 4.964-1.165 1.289-1.397 1.205-1.397 3.47 0 1.502.169 6.65.129 11.226 1.809.209 4.466.71 5.268 1.882 0 0-.289-7.18 7.807-3.422 0 0 .289-9.783 11.469-7.277-.001.001-5.669-6.958-13.71-10.685zM45.935 19.351c.146-8.514-1.407-16.533-1.407-16.533s-.145-1.301-.867-.241c-.723 1.06-1.205 3.952-1.205 3.952-7.469-.434-12.818.337-12.818.337-.819-2.747-2.217-3.952-2.891-3.662-.675.289-.723 3.325-.723 3.325l-.334 14.158a144.309 144.309 0 0 1 20.245-1.336z"/>
    <path fill="#E55645" d="M45.351 47.117c.127-1.065.2-2.485.239-4.06l-8.146 2.168c-5.976 1.59-7.807 1.783-7.807 1.783l1.108 5.012.07.326c1.499.992 3.089 1.805 4.769 2.555 4.373-2.165 6.871-4.134 6.871-4.134l-.005.062a15.274 15.274 0 0 0 2.901-3.712z"/>
    <path d="M31.998 16.215c-.046-.091 1.026.683 1.412.924.386.241.612.425.612.594 0 .169-.265.337-.626.337s-.916-.12-.964-.265c0 0 .602-.024.94-.024h.289s-1.398-1.036-1.663-1.566zM39.501 16.329s-1.051 1.279-1.09 1.338c-.039.059-.166.342.186.294.352-.049 1.116-.225 1.223-.284.108-.059.07-.196-.117-.176-.205.022-.685.049-.988.108l.844-1.266c-.001-.001.025-.12-.058-.014zM36.356 22.444s.813-.352 1.093-1.012.036-.916-.443-.982-1.346-.03-1.744.34c-.398.37-.343.732-.054.958.29.226.85.605 1.148.696z"/>
    <path fill="#F06351" d="M35.95 23.7s-.18.373-.46.596a1.732 1.732 0 0 1-1.022.388c-.641.033-1.06-.17-1.457-.447-.204-.142-.397-.256-.535-.444-.158-.183-.357-.254-.357-.254s.751 4.115 2.576 4.766c1.825.651 2.152-.752 2.209-1.137.049-.327 0-2.09-.823-3.236-.016-.305-.032-.101-.131-.232z"/>
    <path d="M34.302 24.837h-.016c-1.298-.011-2.3-1.366-2.342-1.424a.144.144 0 1 1 .234-.17c.009.013.96 1.296 2.112 1.305h.012c.587 0 1.136-.334 1.634-.994l.143-.189.103.214c.004.007.375.758.992.797.498.031 1.057-.413 1.622-1.283a.144.144 0 0 1 .2-.042.144.144 0 0 1 .042.2c-.635.978-1.27 1.453-1.884 1.414-.565-.036-.946-.497-1.122-.767-.521.623-1.102.939-1.73.939z"/>
    <circle fill="#FDC305" cx="36.256" cy="34.547" r="3.75"/>
    <path fill="#111" d="M41.233 31.504L38.1 32.813l1.15-5.636-7.501 9.762 3.133-1.309-1.15 5.636 7.501-9.762zm-7.388 3.823l4.131-5.408-.807 4.02 1.967-.822-4.131 5.408.807-4.02-1.967.822z"/>
    <circle fill="#111" cx="32.437" cy="32.743" r="1.123"/>
    <circle fill="#111" cx="38.958" cy="37.135" r=".794"/>
    <circle fill="#111" cx="39.922" cy="35.399" r=".348"/>
    <path fill="#F06351" d="M45.877 21.16s-2.554 2.254-5.084 5.212-5.313 4.895-5.313 4.895c-.217-.528-1.626-1.514-1.626-1.514s-3.144-2.148-5.204-3.838c-1.184-.972-2.355-2.175-3.138-3.024l-2.014-.109c4.711 6.998 12.019 8.838 12.019 8.838.867-.141 3.289-1.866 5.096-3.275 1.807-1.409 4.771-4.543 5.963-5.916a6.1 6.1 0 0 0 1.141-1.978c-1.115.383-1.84.709-1.84.709z"/>
    <path fill="#FDC305" d="M65.218 3.498l-8.455 9.444-1.219-1.997L63.693 0zM62.646 17.258l5.549-4.112-.788-3.733-5.402 4.812zM59.924 49.366l6.129 3.186 3.01-2.346-6.694-2.745zM1.953 5.975l3.065-3.361 9.294 8.999-1.225 2.277zM7.382 16.283L2.68 13.154.275 17.015l5.155 2.401zM13.907 52.552L9.36 55.901l2.805 3.579 4.019-4.023z"/>
    <path fill="#F06351" d="M25.926 27.973s-3.807-1.446-5.204-1.831c-1.398-.386-2.265-.675-4.048.626-1.783 1.301-1.735 3.855-1.735 3.855s.434.964.482 1.446c.048.482-1.205.434-2.024.434s-.916-1.446-.289-3.132c.626-1.687 1.928-3.711 1.928-3.711C9.59 28.503 0 35.057 0 35.057s2.94-.289 8.192.241c5.253.53 4.964 4.674 4.964 4.674s3.518-.964 5.638-1.108c2.12-.145 2.265 2.12 2.265 2.12l.53 3.855s.482-.626 2.65-2.361c1.862-1.489 3.886-1.362 4.385-1.301l-2.698-13.204z"/>
</svg>
