<?xml version="1.0" encoding="utf-8"?>
<svg xmlns="http://www.w3.org/2000/svg" viewBox="0 0 69.86 57.07">
    <path fill="#FDC305" d="M59.624 21.739C54.196 8.746 39.263 2.613 26.27 8.041S7.144 28.403 12.573 41.396c3.571 8.547 11.254 14.125 19.793 15.397a121.257 121.257 0 0 1-1.684-6.826c1.493.988 3.075 1.797 4.749 2.544l-.02.01s.118 2.147.278 4.546c1.766.029 3.55-.126 5.324-.476-.042-.157-.043-.403.012-.759.285-1.854 1.088-5.213 1.243-7.375a15.17 15.17 0 0 0 2.888-3.697l-.004.036a33.81 33.81 0 0 1-.054.431c-.552 4.246-1.697 8.776-2.393 10.028a5.756 5.756 0 0 1-.826 1.148 25.751 25.751 0 0 0 4.051-1.311c12.99-5.427 19.122-20.36 13.694-33.353zm-1.471 3.769c-.432.432-1.343.72-1.487-.576-.144-1.295-.192-2.207-.192-2.207s-1.919-3.407-2.639-3.455c-.72-.048-5.806 3.455-7.149 4.942-1.16 1.284-1.391 1.2-1.391 3.455 0 1.706.219 8.131.098 13.051l-8.111 2.159c-5.95 1.583-7.773 1.775-7.773 1.775l-1.008-5.806h-.002l-.04-.007h-.002l-.035-.005a1.665 1.665 0 0 0-.049-.006L25.814 25.7s-3.79-1.439-5.182-1.823c-1.391-.384-2.255-.672-4.03.624-1.775 1.295-1.727 3.838-1.727 3.838s.432.96.48 1.439c.048.48-1.2.432-2.015.432s-.912-1.439-.288-3.119c.624-1.679 1.919-3.695 1.919-3.695s1.2-2.255 2.063-2.879c0 0 .144-.336 1.248-.24 1.104.096 7.245.432 7.245.432l.053-2.265a143.66 143.66 0 0 1 20.157-1.33c-.01.605-.029 1.212-.058 1.82 0 0 4.366-2.015 8.109-1.967 0 0 .432-.048.768.384s2.399 2.975 2.639 3.359c.24.384 1.2 1.727 1.823 3.023-.002 0-.434 1.343-.865 1.775z"/>
    <path fill="#F06351" d="M56.21 19.427c.472.596.883 1.124.983 1.283.24.384 1.2 1.727 1.823 3.023 0 0-.432 1.343-.864 1.775-.432.432-1.343.72-1.487-.576-.144-1.295-.192-2.207-.192-2.207s-1.919-3.407-2.639-3.455c-.72-.048-5.806 3.455-7.149 4.942-1.16 1.284-1.391 1.2-1.391 3.455 0 1.496.169 6.621.128 11.177 1.801.208 4.447.707 5.245 1.873 0 0-.288-7.149 7.773-3.407 0 0 .288-9.74 11.419-7.245.001.001-5.643-6.927-13.649-10.638zM45.735 17.115C45.88 8.638 44.334.654 44.334.654s-.144-1.295-.864-.24c-.72 1.056-1.2 3.934-1.2 3.934-7.437-.432-12.763.336-12.763.336C28.691 1.949 27.3.75 26.628 1.037c-.672.288-.72 3.311-.72 3.311l-.331 14.097a143.693 143.693 0 0 1 20.158-1.33z"/>
    <path fill="#E55645" d="M45.154 44.76c.126-1.06.199-2.475.238-4.042l-8.111 2.159c-5.95 1.583-7.773 1.775-7.773 1.775l1.104 4.99.07.324c1.493.988 3.075 1.797 4.749 2.544 4.354-2.155 6.841-4.116 6.841-4.116l-.005.062a15.205 15.205 0 0 0 2.887-3.696z"/>
    <path d="M31.859 13.993c-.046-.091 1.022.68 1.406.92s.61.423.61.591-.264.336-.624.336-.912-.12-.96-.264c0 0 .6-.024.936-.024h.288s-1.392-1.032-1.656-1.559zM39.329 14.106s-1.047 1.274-1.086 1.332-.166.341.185.292 1.111-.224 1.218-.283.069-.196-.117-.175c-.204.022-.682.049-.984.107l.841-1.26s.027-.118-.057-.013zM36.198 20.194s.81-.351 1.089-1.008.036-.912-.441-.978c-.477-.066-1.34-.03-1.736.339-.396.369-.342.729-.054.954.288.225.846.603 1.142.693z"/>
    <path fill="#F06351" d="M35.794 21.445s-.179.372-.458.594a1.721 1.721 0 0 1-1.017.387c-.638.033-1.055-.169-1.451-.445-.203-.141-.395-.254-.532-.442a.944.944 0 0 0-.356-.253s.747 4.097 2.565 4.745c1.817.648 2.143-.749 2.2-1.133.048-.326 0-2.081-.82-3.222-.016-.303-.032-.1-.131-.231z"/>
    <path d="M34.153 22.577h-.016c-1.292-.011-2.29-1.36-2.332-1.418a.143.143 0 0 1 .032-.201.144.144 0 0 1 .201.031c.009.013.956 1.29 2.103 1.299h.012c.584 0 1.131-.333 1.627-.989l.142-.188.102.213c.004.007.373.755.988.794.496.031 1.052-.411 1.615-1.278a.143.143 0 0 1 .199-.042.143.143 0 0 1 .042.199c-.632.973-1.264 1.447-1.876 1.408-.563-.036-.941-.495-1.117-.764-.518.622-1.097.936-1.722.936z"/>
    <path fill="#111" d="M41.054 29.215l-3.12 1.303 1.145-5.611-7.469 9.72 3.12-1.303-1.145 5.611 7.469-9.72zm-7.356 3.807l4.113-5.385-.803 4.002 1.958-.818-4.113 5.385.803-4.002-1.958.818z"/>
    <path fill="#F06351" d="M45.678 18.916s-2.543 2.244-5.062 5.189-5.29 4.874-5.29 4.874c-.216-.526-1.619-1.508-1.619-1.508s-3.131-2.139-5.182-3.822c-1.179-.967-2.345-2.166-3.125-3.01l-2.005-.109c4.69 6.967 11.967 8.799 11.967 8.799.864-.14 3.275-1.858 5.074-3.261s4.75-4.523 5.938-5.89a6.082 6.082 0 0 0 1.136-1.969 23.76 23.76 0 0 0-1.832.707zM25.814 25.7s-3.79-1.439-5.182-1.823c-1.391-.384-2.255-.672-4.03.624-1.775 1.295-1.727 3.838-1.727 3.838s.432.96.48 1.439c.048.48-1.2.432-2.015.432s-.912-1.439-.288-3.119c.624-1.679 1.919-3.695 1.919-3.695C9.548 26.228 0 32.753 0 32.753s2.927-.288 8.157.24 4.942 4.654 4.942 4.654 3.503-.96 5.614-1.104c2.111-.144 2.255 2.111 2.255 2.111l.528 3.838s.48-.624 2.639-2.351c1.854-1.483 3.869-1.356 4.366-1.295L25.814 25.7z"/>
</svg>
