<?xml version="1.0" encoding="utf-8"?>
<svg xmlns="http://www.w3.org/2000/svg" viewBox="0 0 33.32 37.614">
    <g fill="#FDC305">
        <path d="M6.071 20.723l.053-2.266a143.623 143.623 0 0 1 20.165-1.331c-.01.605-.029 1.213-.058 1.821 0 0 2.923-1.349 6.036-1.813C29.9 10.811 23.803 6.309 16.654 6.309c-8.323 0-15.221 6.102-16.466 14.076 2.172.136 5.883.338 5.883.338zM27.239 24.227c-1.16 1.284-1.392 1.2-1.392 3.456 0 .908.028 4.898.035 9.172 4.484-2.987 7.438-8.088 7.438-13.88 0-1.052-.098-2.08-.285-3.078-1.813 1.065-4.811 3.24-5.796 4.33zM6.359 25.715s-3.792-1.44-5.184-1.824C.747 23.774.37 23.665 0 23.608c.226 6.049 3.674 11.273 8.678 14.006L6.359 25.715z"/>
    </g>
    <path fill="#F06351" d="M26.295 17.122C26.44 8.642 24.893.655 24.893.655s-.144-1.296-.864-.24-1.2 3.936-1.2 3.936c-7.44-.432-12.768.336-12.768.336C9.245 1.95 7.853.75 7.181 1.038c-.672.288-.72 3.312-.72 3.312L6.13 18.452a143.763 143.763 0 0 1 20.165-1.33z"/>
    <path d="M12.413 13.998c-.046-.091 1.022.681 1.406.921.384.24.61.423.61.591 0 .168-.264.336-.624.336s-.912-.12-.96-.264c0 0 .6-.024.936-.024h.288s-1.392-1.032-1.656-1.56zM19.886 14.112s-1.047 1.274-1.086 1.333c-.039.058-.166.341.185.292s1.111-.224 1.218-.283c.107-.058.069-.196-.117-.175-.205.022-.682.049-.984.107l.841-1.261s.026-.118-.057-.013zM16.754 20.202s.81-.351 1.089-1.008c.279-.657.036-.912-.441-.978-.477-.066-1.341-.03-1.737.339-.396.369-.342.729-.054.954.288.225.846.603 1.143.693z"/>
    <path fill="#F06351" d="M16.349 21.453s-.18.372-.458.594a1.722 1.722 0 0 1-1.018.387c-.638.033-1.055-.169-1.451-.445-.203-.141-.395-.255-.533-.442a.944.944 0 0 0-.356-.253s.748 4.099 2.566 4.747c1.818.648 2.144-.749 2.2-1.133.048-.326 0-2.082-.82-3.223-.015-.304-.031-.1-.13-.232z"/>
    <path d="M14.708 22.586h-.016c-1.293-.011-2.291-1.361-2.333-1.418a.143.143 0 0 1 .032-.201.144.144 0 0 1 .201.031c.009.013.956 1.291 2.104 1.3h.012c.584 0 1.132-.333 1.628-.99l.142-.189.102.213c.004.007.373.756.989.794.496.031 1.052-.411 1.616-1.278a.143.143 0 0 1 .199-.042.143.143 0 0 1 .042.199c-.633.974-1.265 1.447-1.877 1.408-.563-.036-.942-.495-1.117-.764-.52.623-1.099.937-1.724.937z"/>
    <path fill="#F06351" d="M26.237 18.924s-2.544 2.245-5.064 5.191-5.292 4.876-5.292 4.876c-.216-.526-1.62-1.508-1.62-1.508s-3.132-2.14-5.184-3.823c-1.179-.968-2.346-2.166-3.126-3.012l-2.006-.109c4.692 6.97 11.972 8.803 11.972 8.803.864-.14 3.276-1.859 5.076-3.262 1.8-1.403 4.752-4.525 5.94-5.893a6.067 6.067 0 0 0 1.136-1.97c-1.11.382-1.832.707-1.832.707z"/>
</svg>
