<?xml version="1.0" encoding="utf-8"?>
<svg xmlns="http://www.w3.org/2000/svg" viewBox="0 0 100.501 18.086">
    <g fill="#111">
        <path d="M1.224 16.577C.408 15.571 0 14.12 0 12.224v-6.34c0-1.94.404-3.405 1.213-4.397C2.021.497 3.403 0 5.358 0c1.866 0 3.19.442 3.969 1.325.779.883 1.169 2.135 1.169 3.756V6.6H6.637V4.842c0-.68-.074-1.201-.221-1.563-.147-.362-.5-.543-1.058-.543s-.926.192-1.103.576c-.176.383-.264.915-.264 1.595v8.272c0 .694.092 1.227.276 1.596.184.369.547.554 1.091.554.544 0 .893-.185 1.048-.554.154-.369.231-.902.231-1.596v-1.846h3.859v1.52c0 1.65-.39 2.934-1.169 3.854-.779.92-2.103 1.378-3.969 1.378-1.94.001-3.318-.502-4.134-1.508zM15.197.239h4.496l3.331 17.586h-3.64l-.596-3.712h-2.622l-.619 3.712h-3.725L15.197.239zm3.217 11.55l-.947-6.861-.949 6.861h1.896zM25.751 3.127H23.06V.239h9.327v2.888H29.72v14.698h-3.968V3.127zM39.532.239h6.924v1.824h-4.432v5.819h3.594v1.737h-3.594v6.448H46.5v1.758h-6.967V.239zM48.488.239h1.698l5.072 11.681V.239h2.073v17.586h-1.587L50.605 5.819v12.007h-2.116V.239zM59.812.239h6.924v1.824h-4.432v5.819h3.594v1.737h-3.594v6.448h4.476v1.758h-6.967V.239zM68.769.239h3.594c1.808 0 3.135.365 3.98 1.096s1.268 1.922 1.268 3.572c0 2.258-.736 3.625-2.205 4.103l2.535 8.815h-2.402l-2.337-8.251H71.26v8.251h-2.491V.239zm3.439 7.577c1.073 0 1.841-.21 2.304-.63.464-.42.695-1.179.695-2.279 0-.724-.081-1.292-.243-1.704s-.448-.717-.859-.912c-.412-.195-.993-.293-1.743-.293H71.26v5.819h.948zM80.812 16.533c-.721-1.006-1.081-2.5-1.081-4.483V6.167c0-1.361.144-2.479.431-3.355.286-.875.779-1.548 1.477-2.019.697-.47 1.657-.706 2.877-.706 1.646 0 2.833.412 3.561 1.237.727.825 1.091 2.121 1.091 3.887v.651h-2.337V5.32c0-.84-.052-1.487-.154-1.944-.104-.456-.32-.799-.651-1.03-.331-.232-.819-.348-1.466-.348-.691 0-1.205.156-1.543.467-.338.311-.555.727-.65 1.248-.095.521-.144 1.216-.144 2.085v6.513c0 1.347.166 2.313.496 2.898.331.586.967.88 1.908.88.926 0 1.562-.319 1.908-.956.345-.636.518-1.657.518-3.061v-1.216H84.78V9.119h4.52v8.706h-1.565l-.243-2.019c-.559 1.49-1.617 2.236-3.175 2.236-1.617.001-2.785-.503-3.505-1.509zM94.282 11.616L90.424.239h2.316l2.733 8.489L98.164.239h2.337l-3.837 11.377v6.209h-2.382v-6.209z"/>
    </g>
</svg>
